# Blender 5.2.0 LTS
# www.blender.org
mtllib lowpolyBunny.mtl
o Bunny-LowPoly
v 29.226992 44.539494 -18.707151
v 46.159988 49.961536 -16.625916
v 36.518944 43.721592 -26.357403
v 46.750908 10.309030 33.683292
v 55.259842 14.605011 29.120697
v 55.135765 21.711510 33.818977
v 31.117165 112.434212 -26.499443
v 23.362013 106.938759 -20.396402
v 29.542870 111.693085 -11.765723
v 13.977301 65.433876 17.521719
v 12.460421 52.311466 27.631361
v 27.161108 64.589813 20.210508
v 21.050880 31.485106 -14.744042
v 5.591862 48.569427 -20.200201
v 56.676582 42.754032 -18.933500
v 63.935928 34.695133 -15.736155
v -19.512016 57.556541 24.397982
v -22.721935 64.221367 26.361109
v -22.557022 60.116085 7.863877
v 63.092522 22.043007 -13.910298
v 74.103683 25.026283 2.433340
v 65.392700 12.979102 -1.685113
v 8.380380 107.663826 -43.984310
v 18.309347 97.114212 -45.197327
v 6.276077 90.716042 -42.754452
v 56.439388 14.206014 -12.568314
v 49.960499 29.366737 -21.494259
v 7.373121 19.886049 20.273106
v 10.061195 10.217390 10.791482
v 7.337845 15.425775 24.842545
v 38.374302 16.788998 -19.974197
v 28.565018 32.567257 -26.427288
v -1.814861 11.859421 7.484867
v -0.456871 5.253883 12.881787
v 10.393107 14.842429 -6.124787
v 31.862989 15.076270 -17.091349
v 13.467396 8.858381 -17.502567
v 4.804572 78.931030 -10.327667
v 9.657615 79.935822 -7.293525
v 11.322732 68.510033 -10.695372
v 82.996773 31.685160 9.758068
v 82.011826 25.699102 22.448847
v 84.232941 23.274181 10.809189
v 16.219772 112.513641 -41.004177
v 3.330716 82.537445 -19.617216
v 4.804305 89.171173 -14.353054
v -23.889854 67.722076 7.028679
v -17.016325 62.737965 -6.631052
v 10.397546 89.709541 3.888087
v 22.616880 96.787277 -2.458947
v 7.051953 92.852959 3.029980
v 19.874365 7.225319 37.050163
v 31.452627 15.389469 34.743919
v 17.847952 17.253424 29.947573
v 28.902403 94.550209 -20.602587
v 36.363209 93.380737 -19.849846
v 59.223038 63.991158 -11.886848
v 68.242119 51.547035 -9.494752
v 57.814293 53.833424 -13.204912
v 77.160118 40.035561 20.248390
v 64.277557 17.089655 29.077145
v 75.235497 30.358242 20.461643
v 38.195709 110.779343 -23.468212
v 35.363232 105.768845 -30.643520
v 55.152161 50.349213 35.401314
v 71.847755 51.512608 25.795000
v 62.428028 60.188969 28.382292
v 76.141289 55.115955 2.216267
v 77.443840 31.786386 9.292519
v -20.511681 46.441719 9.214548
v -15.619654 41.253635 19.234953
v -15.295059 55.172718 17.339926
v 48.751999 75.248901 10.750254
v 63.769543 69.472572 6.074312
v 50.795670 72.232697 -1.508498
v -16.081835 36.272312 -1.182789
v -7.135612 23.835348 15.087037
v -10.108046 31.131956 20.983580
v 13.184771 81.565674 -0.510763
v 16.881767 71.507210 3.674679
v -7.096308 82.828041 -11.379349
v 4.598203 84.128960 -36.358456
v -17.362780 54.555843 2.177474
v -5.462559 58.636871 -11.136494
v -8.192490 44.901501 -14.455393
v -2.564851 77.948547 -12.458483
v 1.880368 110.211441 -37.066368
v -2.582051 90.299576 -3.291964
v 9.679700 100.124702 -4.997551
v -4.205371 93.740364 8.040327
v 6.386195 90.643585 -8.425776
v -21.593699 86.379417 5.908784
v -14.117411 88.405998 16.906992
v -20.018257 77.262794 24.491413
v -19.341692 78.161926 1.290740
v 74.177460 41.442955 -6.971712
v 3.630415 88.538704 19.401827
v -6.772095 83.070396 27.367222
v -7.553542 24.984909 -1.506406
v 16.296309 28.901667 30.711380
v 8.905133 5.274907 -5.376803
v 54.831985 5.351871 -12.990793
v 54.923351 5.376235 0.264993
v 22.395800 5.311866 -18.550373
v 47.880558 72.037971 23.292019
v 42.551220 64.351578 31.091362
v -6.452787 5.375844 22.764629
v -4.462166 103.480209 -33.056183
v 32.650837 59.561928 -16.574064
v 6.239258 21.569592 -4.278805
v -4.711780 55.313019 24.598978
v -1.693329 44.653904 30.414913
v 74.377953 5.280865 16.983009
v 67.265984 5.335831 25.761890
v -5.434093 7.630634 -1.448322
v 67.756691 64.532501 19.785345
v 42.713348 30.459379 41.427631
v 62.885677 37.382732 34.117687
v 49.207832 41.972366 39.966232
v 27.724054 41.868996 39.776821
v 31.180925 27.114344 41.306591
v 39.498386 46.218288 40.304123
v 29.236950 68.702370 -1.372280
v -9.316551 87.904594 -8.589153
v 1.371671 8.035669 29.638382
v -4.245932 94.469864 -23.641005
v -14.483150 70.881027 32.904858
v 19.485271 93.621155 -38.630070
v 17.373781 62.434635 -15.595675
v 43.605114 63.727177 -11.608113
v 21.240665 104.226685 -36.328995
v 5.315333 80.260056 16.999882
v -5.818198 62.803837 33.934971
v 1.500826 65.004501 25.917610
v 70.471558 5.294834 5.591371
v 23.549337 47.895332 31.615866
v -1.425834 35.927811 28.697832
v 41.233246 32.638805 -26.831974
v 79.977448 21.758730 3.087993
v 30.041061 103.612564 -30.601151
v 46.470150 5.312054 32.180119
v 2.113453 32.444763 -16.716484
v 12.697721 5.310379 28.181570
v 6.419781 13.851887 6.827970
v 3.269821 94.082901 -34.315594
v 10.608130 101.516609 -28.953554
v -2.154797 100.336327 -20.623608
v 35.530037 95.245407 -14.819423
vn -0.2497 0.9085 -0.3351
vn 0.5866 -0.4395 0.6802
vn -0.5897 0.8073 -0.0224
vn -0.1197 0.6146 0.7797
vn 0.0098 -0.2961 -0.9551
vn 0.3422 -0.0637 -0.9375
vn -0.8861 -0.4541 0.0929
vn 0.7881 -0.4142 -0.4554
vn -0.1732 -0.0499 -0.9836
vn 0.2860 -0.3925 -0.8742
vn -0.9809 -0.1355 -0.1399
vn 0.1764 -0.2767 -0.9446
vn -0.1330 0.6106 0.7807
vn -0.2664 0.8215 -0.5041
vn 0.4556 0.3144 -0.8328
vn 0.9749 0.1623 0.1522
vn 0.1839 0.2814 -0.9418
vn 0.9804 -0.0721 -0.1835
vn -0.9026 -0.2000 -0.3812
vn 0.1952 0.4462 0.8734
vn -0.2147 0.5352 0.8170
vn -0.0262 -0.6540 -0.7561
vn 0.3485 0.0729 -0.9345
vn 0.7018 -0.1241 0.7015
vn 0.9511 -0.1557 -0.2668
vn 0.4311 0.8027 0.4121
vn 0.4685 0.2566 0.8454
vn 0.9986 0.0518 -0.0131
vn -0.8774 0.0848 0.4722
vn 0.3040 0.9356 -0.1795
vn -0.8774 -0.4620 0.1293
vn 0.7016 0.3944 -0.5934
vn 0.8688 0.1194 -0.4805
vn -0.8860 -0.1865 -0.4245
vn -0.4656 -0.6392 -0.6121
vn -0.4331 0.2921 -0.8527
vn 0.2302 -0.8943 -0.3837
vn -0.2776 0.7872 -0.5507
vn -0.5060 0.7152 0.4822
vn -0.0573 0.9530 -0.2976
vn -0.1516 0.9680 -0.2000
vn -0.3984 0.9114 0.1029
vn -0.9190 0.3940 -0.0115
vn 0.9797 -0.0061 -0.2004
vn -0.0760 0.8656 0.4949
vn 0.5877 -0.5931 -0.5503
vn -0.6130 -0.4444 -0.6533
vn -0.2573 0.4751 -0.8415
vn -0.6905 -0.1385 0.7099
vn -0.9403 0.1214 -0.3179
vn 0.0009 -1.0000 0.0018
vn -0.9167 0.0092 -0.3996
vn 0.3896 0.8487 -0.3576
vn -0.4226 0.6522 0.6294
vn -0.3581 0.9102 0.2081
vn 0.9675 -0.0925 -0.2353
vn 0.2310 0.6094 0.7584
vn 0.0008 -1.0000 0.0021
vn -0.6724 0.2109 -0.7095
vn 0.0826 0.1216 -0.9891
vn -0.4774 -0.1919 -0.8575
vn -0.6428 0.2186 0.7342
vn -0.4331 -0.2246 -0.8729
vn 0.7049 -0.4171 0.5737
vn 0.6535 0.6618 -0.3674
vn 0.3835 0.3928 -0.8358
vn -0.1872 -0.9775 -0.0971
vn -0.0411 0.1865 -0.9816
vn 0.9840 -0.1783 -0.0065
vn -0.3563 0.7757 0.5210
vn 0.7593 0.6506 0.0136
vn 0.3662 -0.0890 0.9263
vn -0.0760 0.0852 0.9935
vn -0.6227 0.4481 -0.6415
vn -0.8678 0.0304 -0.4961
vn -0.2410 -0.4920 -0.8366
vn -0.1576 0.9525 -0.2606
vn -0.8934 0.4370 0.1041
vn -0.7462 -0.4175 -0.5186
vn 0.4213 0.6570 -0.6251
vn -0.3791 -0.8389 -0.3905
vn -0.7625 0.1453 -0.6304
vn -0.5810 0.7179 0.3835
vn -0.9044 -0.1840 -0.3849
vn -0.9793 0.1956 -0.0521
vn -0.0325 0.6123 0.7899
vn -0.2334 0.7575 0.6097
vn -0.4071 0.5786 0.7067
vn 0.2902 0.6487 -0.7035
vn 0.2493 0.1895 -0.9497
vn -0.9368 0.0847 0.3394
vn 0.7861 -0.4818 0.3871
vn -0.2197 0.4705 -0.8546
vn -0.4549 0.8433 -0.2864
vn -0.1352 0.8032 -0.5802
vn 0.8492 -0.2423 0.4691
vn 0.6859 0.2317 0.6898
vn 0.8123 0.4520 0.3686
vn -0.7283 0.0568 -0.6829
vn 0.6959 0.4269 0.5774
vn 0.0893 -0.3417 0.9356
vn -0.8372 -0.3838 -0.3895
vn 0.7494 0.2918 -0.5944
vn -0.0006 -1.0000 0.0019
vn 0.2647 -0.5650 -0.7815
vn 0.6988 -0.0221 0.7150
vn -0.0755 0.4610 0.8842
vn 0.0832 0.1215 -0.9891
vn -0.4705 0.5649 0.6779
vn -0.3124 -0.5703 0.7597
vn -0.4428 -0.1834 -0.8777
vn -0.0321 0.0291 -0.9991
vn 0.2409 -0.7070 -0.6649
vn 0.8453 0.2441 -0.4752
vn -0.2528 0.9609 -0.1130
vn 0.3423 0.4501 -0.8248
vn -0.7595 0.4378 -0.4811
vn 0.1320 0.5091 0.8505
vn -0.7159 0.2423 0.6548
vn 0.3695 -0.2000 0.9074
vn 0.5190 0.3309 0.7881
vn 0.2076 0.4151 0.8858
vn -0.0476 -0.7374 -0.6738
vn -0.0826 0.8458 -0.5271
vn -0.4773 0.5724 0.6668
vn 0.1167 -0.9897 0.0830
vn -0.7406 0.2153 -0.6365
vn -0.5994 -0.1722 0.7817
vn 0.9569 0.2361 0.1692
vn 0.0073 0.9917 0.1283
vn 0.8683 0.0662 -0.4916
vn -0.7654 0.2643 0.5867
vn 0.2315 0.8558 -0.4626
vn -0.0003 -1.0000 -0.0048
vn 0.0313 -0.7473 -0.6638
vn -0.3111 0.0737 0.9475
vn -0.2692 -0.0334 -0.9625
vn -0.1167 0.2412 0.9634
vn -0.0114 -0.8607 -0.5090
vn -0.5242 0.8467 -0.0911
vn 0.1984 0.9776 0.0704
vn -0.2592 -0.0272 -0.9654
vn -0.4354 -0.3619 0.8243
vn -0.1824 0.4327 -0.8829
vn -0.5833 -0.0526 0.8106
vn 0.6628 0.2589 0.7026
vn -0.4590 0.4388 -0.7725
vn 0.9416 -0.1706 -0.2904
vn 0.1921 0.4540 0.8701
vn 0.0728 0.6924 -0.7178
vn 0.1815 0.0140 -0.9833
vn -0.4445 0.0595 0.8938
vn 0.8827 -0.3972 0.2512
vn -0.8145 -0.5056 0.2847
vn -0.3900 0.9107 0.1360
vn -0.0274 -0.9723 0.2321
vn -0.0027 -1.0000 -0.0074
vn -0.9690 -0.2443 -0.0377
vn -0.8008 0.3552 -0.4822
vn -0.5416 -0.3427 -0.7676
vn -0.3364 0.8866 -0.3174
vn -0.0656 0.5725 0.8172
vn 0.1878 0.2693 -0.9446
vn 0.0743 0.7192 0.6909
vn -0.0287 -0.2865 0.9577
vn -0.4203 0.6510 0.6322
vn -0.2468 0.9107 -0.3311
vn 0.6357 -0.0930 0.7663
vn 0.4268 -0.1570 -0.8906
vn 0.0720 0.0855 0.9937
vn -0.2123 0.4708 0.8563
vn -0.0199 0.1314 -0.9911
vn -0.6535 -0.4272 -0.6249
vn 0.1815 0.0203 0.9832
vn 0.9125 0.0687 0.4032
vn -0.7080 -0.5183 -0.4797
vn 0.0032 -1.0000 0.0005
vn 0.6150 0.4815 0.6245
vn -0.1868 -0.1952 0.9628
vn -0.8473 -0.4426 -0.2937
vn 0.2947 0.0357 0.9549
vn -0.4543 -0.0362 -0.8901
vn 0.1536 -0.5431 0.8255
vn 0.1178 0.9620 -0.2462
vn 0.3806 0.8892 0.2541
vn 0.2120 0.4058 0.8890
vn 0.5452 0.1651 -0.8219
vn -0.8748 -0.4421 0.1982
vn 0.5141 -0.4305 0.7419
vn 0.4059 0.8911 0.2030
vn 0.0726 -0.0789 -0.9942
vn 0.9677 -0.1888 0.1672
vn -0.5624 0.1244 0.8175
vn -0.3534 -0.1241 -0.9272
vn 0.9666 -0.1098 -0.2315
vn 0.1132 0.1478 0.9825
vn 0.7308 -0.3418 -0.5908
vn -0.7205 -0.5878 -0.3679
vn -0.7980 -0.6023 -0.0216
vn -0.8610 -0.4949 0.1173
vn 0.3407 0.6100 0.7154
vn 0.3146 0.9263 0.2071
vn 0.5893 -0.8073 -0.0321
vn 0.8330 -0.1330 -0.5370
vn -0.9241 0.0994 -0.3689
vn 0.8963 0.3840 0.2219
vn -0.5052 0.7727 -0.3843
vn 0.0471 -0.9019 -0.4294
vn 0.3740 0.7136 0.5924
vn 0.6986 -0.5154 0.4963
vn -0.7558 0.2918 -0.5861
vn -0.3036 -0.7649 -0.5681
vn 0.2474 -0.6251 -0.7403
vn 0.8040 -0.0023 0.5946
vn -0.9094 0.3935 -0.1347
vn 0.0201 -0.1616 -0.9867
vn -0.4049 -0.6688 0.6235
vn -0.7783 0.2505 0.5757
vn 0.6523 -0.0475 0.7565
vn 0.5537 -0.2411 0.7971
vn -0.9479 0.2189 0.2313
vn 0.4438 -0.8960 -0.0155
vn -0.0065 -1.0000 0.0010
vn -0.0294 0.0651 0.9974
vn -0.6611 -0.7406 0.1203
vn -0.1428 -0.8575 0.4943
vn -0.9266 0.0885 -0.3654
vn 0.5328 -0.8453 -0.0400
vn -0.1072 0.6818 0.7237
vn 0.4618 -0.7553 -0.4651
vn 0.7923 -0.5087 -0.3368
vn -0.2514 -0.9660 -0.0606
vn 0.7032 -0.1256 0.6998
vn -0.5704 0.7168 0.4010
vn 0.2960 0.9327 0.2062
vn -0.3504 -0.4636 0.8138
vn 0.0894 -0.2287 -0.9694
vn 0.2190 0.4539 -0.8637
vn -0.0244 0.7731 -0.6338
vn 0.5748 0.2775 -0.7698
vn -0.8293 -0.3638 -0.4242
vn -0.4291 0.9011 -0.0627
vn 0.4168 -0.7695 -0.4839
vn -0.5853 -0.1304 0.8003
vn -0.6993 0.6165 0.3618
vn -0.3386 -0.4122 0.8458
vn 0.1902 0.3623 0.9125
vn 0.5863 0.1454 -0.7970
vn -0.7668 -0.3669 -0.5266
vn 0.3967 -0.2132 0.8928
vn 0.6391 -0.3057 0.7058
vn 0.8194 0.2337 0.5234
vn -0.0224 0.9173 0.3976
vn 0.6835 0.2621 0.6813
vn 0.6623 -0.2357 -0.7112
vn -0.9492 -0.1351 0.2843
vn -0.2439 -0.9682 -0.0551
vn 0.9216 0.3217 0.2170
vn -0.5992 0.7427 0.2990
vn 0.3042 0.6644 0.6827
vn -0.1488 -0.9604 0.2355
vn 0.3026 -0.3842 -0.8722
vn -0.1018 -0.4877 0.8671
vn -0.0706 0.8876 0.4551
vn -0.3409 -0.5768 0.7423
vn 0.4781 0.2005 0.8551
vn -0.5328 -0.8456 -0.0328
vn 0.4356 0.1723 0.8835
vn 0.8003 -0.5327 -0.2751
vn -0.3737 -0.0345 -0.9269
vn 0.3702 0.0322 -0.9284
vn -0.0013 0.3162 -0.9487
vn 0.3672 0.5877 0.7210
vn -0.1267 -0.7810 0.6116
vn -0.9976 0.0477 0.0493
vn 0.0793 0.6725 -0.7358
vn 0.1689 -0.0165 -0.9855
vn 0.5187 0.0683 -0.8522
vn -0.8698 0.1153 -0.4797
vn 0.5568 -0.2678 0.7863
vn -0.5877 -0.1839 0.7879
vn 0.1789 0.3109 0.9335
vn 0.2428 0.8369 0.4906
vn 0.0025 -0.9998 -0.0211
vn 0.1119 0.4473 -0.8874
vn 0.3558 -0.2723 0.8940
vn 0.2819 0.7904 0.5439
vn -0.7213 0.3624 -0.5902
vn 0.0744 -0.2531 0.9646
vn 0.8855 0.2463 -0.3939
vn 0.6434 -0.6770 0.3575
vn 0.9804 -0.0645 0.1863
vt 0.391897 0.846728
vt 0.391897 0.925851
vt 0.353929 0.877518
vt 0.985525 0.635867
vt 0.961222 0.612524
vt 0.985525 0.581111
vt 0.814192 0.386488
vt 0.823781 0.433022
vt 0.778024 0.445344
vt 0.724387 0.455607
vt 0.778025 0.457245
vt 0.727493 0.518350
vt 0.403578 0.222007
vt 0.336446 0.220004
vt 0.372108 0.116239
vt 0.450543 0.336973
vt 0.434156 0.386340
vt 0.408547 0.246541
vt 0.209932 0.895995
vt 0.218080 0.862692
vt 0.266716 0.927161
vt 0.162447 0.860003
vt 0.209931 0.912940
vt 0.152565 0.928418
vt 0.504881 0.863174
vt 0.553264 0.908679
vt 0.504881 0.941880
vt 0.336948 0.402140
vt 0.379705 0.335811
vt 0.381547 0.411342
vt 0.845648 0.920086
vt 0.819425 0.978447
vt 0.819425 0.909298
vt 0.305814 0.316793
vt 0.346493 0.237836
vt 0.961222 0.409442
vt 0.987962 0.433193
vt 0.961222 0.464547
vt 0.885075 0.957844
vt 0.885075 0.845487
vt 0.922932 0.922285
vt 0.504194 0.057480
vt 0.520430 0.077736
vt 0.473694 0.105681
vt 0.038444 0.823767
vt 0.090448 0.863548
vt 0.034197 0.862708
vt 0.541182 0.836441
vt 0.784036 0.909298
vt 0.778025 0.864512
vt 0.816764 0.870005
vt 0.074161 0.332781
vt 0.126293 0.278913
vt 0.105593 0.349101
vt 0.333372 0.947805
vt 0.322307 0.906054
vt 0.353929 0.942506
vt 0.264766 0.669838
vt 0.227207 0.707299
vt 0.219798 0.642013
vt 0.266716 0.851554
vt 0.288088 0.823767
vt 0.288088 0.944027
vt 0.549201 0.308565
vt 0.517504 0.373648
vt 0.503279 0.323199
vt 0.670320 0.834360
vt 0.763107 0.909174
vt 0.692960 0.873793
vt 0.411779 0.476625
vt 0.354847 0.537343
vt 0.374128 0.464204
vt 0.987252 0.955952
vt 0.954684 0.964687
vt 0.955472 0.902779
vt 0.723610 0.756857
vt 0.671784 0.774378
vt 0.669510 0.731871
vt 0.564776 0.810267
vt 0.642761 0.891967
vt 0.089202 0.435664
vt 0.110906 0.481486
vt 0.046545 0.475799
vt 0.663363 0.609875
vt 0.633732 0.676238
vt 0.607147 0.610733
vt 0.227811 0.351980
vt 0.257085 0.422923
vt 0.213018 0.435664
vt 0.557367 0.408531
vt 0.364757 0.655362
vt 0.336492 0.695685
vt 0.341252 0.635911
vt 0.059295 0.202026
vt 0.095988 0.043096
vt 0.110251 0.083793
vt 0.143857 0.329612
vt 0.161578 0.249480
vt 0.229946 0.215892
vt 0.223031 0.269913
vt 0.949359 0.135612
vt 0.968099 0.175821
vt 0.932413 0.175803
vt 0.951306 0.431848
vt 0.910279 0.375669
vt 0.946117 0.388856
vt 0.865797 0.575891
vt 0.813145 0.570702
vt 0.828488 0.531066
vt 0.840768 0.620861
vt 0.203265 0.928418
vt 0.203265 0.989783
vt 0.182156 0.946445
vt 0.908642 0.665306
vt 0.850537 0.683631
vt 0.004861 0.372414
vt 0.044936 0.281537
vt 0.557367 0.886327
vt 0.778024 0.642151
vt 0.792114 0.703059
vt 0.358380 0.450725
vt 0.282868 0.358511
vt 0.399101 0.058096
vt 0.165387 0.636368
vt 0.209958 0.575926
vt 0.819425 0.971780
vt 0.778025 0.953983
vt 0.819425 0.909298
vt 0.757595 0.310869
vt 0.696731 0.300284
vt 0.809983 0.166661
vt 0.162088 0.378502
vt 0.557367 0.642874
vt 0.850577 0.750060
vt 0.896559 0.710454
vt 0.914310 0.757336
vt 0.722973 0.615247
vt 0.835919 0.889718
vt 0.766230 0.597112
vt 0.741302 0.687112
vt 0.644442 0.000000
vt 0.029034 -0.000000
vt 0.015402 0.073003
vt 0.000000 0.032659
vt 0.474303 0.205966
vt 0.461345 0.281077
vt 0.850584 0.097513
vt 0.932413 0.106985
vt 0.855706 0.184404
vt 0.044054 0.535589
vt 0.092261 0.563964
vt 0.488308 0.803458
vt 0.529590 0.714731
vt 0.529590 0.831358
vt 0.049472 0.953469
vt 0.093007 0.963774
vt 0.613844 0.731871
vt 0.754969 0.024738
vt 0.760750 0.093828
vt 0.684775 0.035716
vt 0.954685 0.742258
vt 0.972044 0.703059
vt 1.000000 0.786515
vt 0.251468 0.988440
vt 0.209932 0.987131
vt 0.251468 0.927161
vt 0.557367 0.741186
vt 0.621803 0.732814
vt 0.155328 0.766072
vt 0.124679 0.823767
vt 0.102015 0.785659
vt 0.102724 0.702316
vt 0.171032 0.721751
vt 0.082245 0.748489
vt 0.838969 0.000000
vt 0.877209 0.038865
vt 0.813101 0.039109
vt 0.288094 0.296558
vt 0.625161 0.511902
vt 0.114726 0.382029
vt 0.893672 0.276673
vt 0.929479 0.282160
vt 0.909724 0.308514
vt 0.813101 0.124770
vt 0.030955 0.206197
vt -0.000000 0.286260
vt 0.457870 0.933043
vt 0.447752 0.896597
vt 0.504881 0.925931
vt 0.035777 0.126681
vt 0.266716 0.823767
vt 0.775230 0.375669
vt 0.881607 0.798010
vt 0.483775 0.027768
vt 0.987429 0.375669
vt 0.778407 0.753202
vt 0.456629 0.138758
vt 0.469451 0.836441
vt 0.504881 0.872280
vt 0.570155 0.571177
vt 0.826649 0.737622
vt 0.407386 0.729891
vt 0.387075 0.846728
vt 0.373029 0.806237
vt 0.350234 0.766014
vt 0.408148 0.652196
vt 0.250989 0.764253
vt 0.489476 0.421378
vt 0.569560 0.335750
vt 0.659399 0.367202
vt 0.932413 0.359552
vt 0.943024 0.304165
vt 0.989011 0.308249
vt 0.741379 0.814173
vt 0.057154 0.610183
vt 0.001642 0.645721
vt 0.076664 0.664005
vt 0.000000 0.733581
vt 0.133306 0.561746
vt 0.476047 0.690464
vt 0.371636 0.288730
vt 0.982754 0.000000
vt 0.933565 0.058750
vt 0.932413 0.027116
vt 0.850577 0.703059
vt 0.778025 0.719499
vt 0.904898 0.576519
vt 0.951920 0.175821
vt 0.968318 0.225728
vt 0.937711 0.232584
vt 0.447752 0.783782
vt 0.064057 0.795451
vt 0.019867 0.803750
vt 0.937633 0.813064
vt 0.197789 0.795325
vt 0.220375 0.818837
vt 0.382222 0.985442
vt 0.353929 0.964792
vt 0.382222 0.925852
vt 0.557367 0.517560
vt 0.157569 0.508760
vt 0.981459 0.902779
vt 0.000000 0.863408
vt 0.595604 0.422685
vt 0.557366 0.235006
vt 0.463752 0.487178
vt 0.549554 0.464203
vt 0.503457 0.535666
vt 0.391897 0.969621
vt 0.397168 0.908155
vt 0.436440 0.969621
vt 0.322307 0.962802
vt 0.288094 0.864079
vt 0.322307 0.846728
vt 0.995523 0.521615
vt 0.980181 0.567146
vt 0.980181 0.464547
vt 0.778963 0.378048
vt 0.495843 -0.000000
vt 0.940258 0.845487
vt 0.858692 0.845487
vt 0.886255 0.319331
vt 0.447752 0.768836
vt 0.466587 0.836441
vt 0.630997 0.934259
vt 0.353929 0.846728
vt 0.932413 0.192451
vt 0.995909 0.902780
vt 0.954685 0.895208
vt 0.275880 0.619228
vt 0.229627 0.588380
vt 0.167028 0.928418
vt 0.182156 0.975291
vt 0.152565 0.975291
vt 0.557366 0.108907
vt 0.603709 0.083371
vt 0.063617 0.073558
vt 0.893372 0.439952
vt 0.274622 0.759949
vt 0.886255 0.303192
vt 0.868793 0.342261
vt 0.830526 0.337550
vt 0.445824 0.718145
vt 0.517299 0.245998
vt 0.288094 0.268306
vt 0.890812 0.185521
vt 0.864497 0.242437
vt 0.232011 0.784524
vt 0.275880 0.823363
vt 0.655959 0.458367
vt 0.695976 0.705004
vt 0.262935 0.578967
vt 0.169242 0.418251
vt 0.333476 0.830373
vt 0.301212 0.139378
vt 0.334134 0.073174
vt 0.428881 0.464203
vt 0.085557 0.199776
vt 0.875891 0.381568
vt 0.797377 0.565471
vt 0.209931 0.823767
vt 0.980181 0.491846
vt 0.961222 0.581111
vt 0.961222 0.464547
vt 0.447752 0.570395
vt 0.929479 0.361935
vt 0.416337 0.602365
vt 0.447752 0.523673
vt 0.007322 0.122347
vt 0.192941 0.505836
vt 0.772771 0.965284
vt 0.885075 0.845487
vt 0.885075 0.986930
vt 0.850577 0.979016
vt 0.603915 0.375669
vt 0.126227 0.889947
vt 0.118626 0.834140
vt 0.152565 0.823767
vt 0.606819 0.030152
vt 0.996678 0.028372
vt 0.813101 0.357374
vt 0.391897 0.846728
vt 0.438995 0.892749
vt 0.391897 0.908155
vt 0.000000 0.943563
vt 0.477391 0.642028
vt 0.916492 0.507350
vt 0.521652 0.654002
vt 0.813101 0.276673
vt 0.954684 0.703059
vt 0.375432 0.552022
vt 0.555254 0.779442
vt 0.529590 0.730110
vt 0.555254 0.642028
vt 0.922932 0.845487
vt 0.948375 0.917825
vt 0.922932 0.943569
vt 0.549554 0.640791
vt 0.961222 0.467125
vt 0.869524 0.514639
vt 0.152565 0.943640
vt 0.093007 0.908581
vt 0.763729 0.781168
vt 0.396739 0.006523
vt 0.126923 0.977915
vt 0.557367 0.040771
vt 0.976952 0.658638
vt 0.479378 0.642028
vt 0.288094 0.652173
s 0
f 1/1/1 2/2/1 3/3/1
f 4/4/2 5/5/2 6/6/2
f 7/7/3 8/8/3 9/9/3
f 10/10/4 11/11/4 12/12/4
f 1/13/5 13/14/5 14/15/5
f 15/16/6 16/17/6 3/18/6
f 17/19/7 18/20/7 19/21/7
f 20/22/8 21/23/8 22/24/8
f 23/25/9 24/26/9 25/27/9
f 26/28/10 27/29/10 20/30/10
f 28/31/11 29/32/11 30/33/11
f 27/29/12 31/34/12 32/35/12
f 33/36/13 34/37/13 29/38/13
f 35/39/14 36/40/14 37/41/14
f 38/42/15 39/43/15 40/44/15
f 41/45/16 42/46/16 43/47/16
f 44/48/17 24/26/17 23/25/17
f 38/49/18 45/50/18 46/51/18
f 47/52/19 48/53/19 19/54/19
f 49/55/20 50/56/20 51/57/20
f 52/58/21 53/59/21 54/60/21
f 55/61/22 56/62/22 39/63/22
f 57/64/23 58/65/23 59/66/23
f 60/67/24 61/68/24 62/69/24
f 63/70/25 56/71/25 64/72/25
f 62/73/26 42/74/26 41/75/26
f 65/76/27 66/77/27 67/78/27
f 68/79/28 60/67/28 69/80/28
f 70/81/29 71/82/29 72/83/29
f 73/84/30 74/85/30 75/86/30
f 76/87/31 77/88/31 78/89/31
f 57/64/32 68/90/32 58/65/32
f 79/91/33 80/92/33 39/93/33
f 81/94/34 25/95/34 82/96/34
f 83/97/35 48/53/35 84/98/35
f 14/99/36 85/100/36 84/98/36
f 45/101/37 38/102/37 86/103/37
f 87/104/38 44/105/38 23/106/38
f 88/107/39 51/108/39 89/109/39
f 90/110/40 51/108/40 88/107/40
f 46/111/41 88/112/41 91/113/41
f 92/114/42 93/115/42 90/110/42
f 47/52/43 94/116/43 95/117/43
f 68/79/44 69/80/44 96/118/44
f 97/119/45 93/115/45 98/120/45
f 20/30/46 22/121/46 26/28/46
f 76/87/47 85/100/47 99/122/47
f 40/44/48 14/15/48 84/123/48
f 100/124/49 28/125/49 54/60/49
f 101/126/50 35/127/50 37/128/50
f 102/129/51 103/130/51 104/131/51
f 83/97/52 76/87/52 70/132/52
f 75/86/53 74/85/53 57/133/53
f 98/134/54 93/135/54 94/136/54
f 105/137/55 73/84/55 12/12/55
f 91/138/56 38/49/56 46/51/56
f 106/139/57 67/140/57 105/137/57
f 104/131/58 103/130/58 107/141/58
f 23/142/59 108/143/59 87/144/59
f 109/145/60 2/146/60 1/13/60
f 13/147/61 36/148/61 110/149/61
f 111/150/62 71/82/62 112/151/62
f 91/152/63 55/153/63 39/154/63
f 113/155/64 42/46/64 114/156/64
f 68/157/65 57/133/65 74/85/65
f 59/66/66 58/65/66 15/16/66
f 115/158/67 101/159/67 34/160/67
f 104/161/68 37/162/68 36/163/68
f 102/164/69 26/165/69 103/166/69
f 106/139/70 105/137/70 12/12/70
f 68/79/71 74/167/71 116/168/71
f 117/169/72 118/170/72 119/171/72
f 120/172/73 121/173/73 122/174/73
f 3/175/74 32/176/74 1/177/74
f 83/97/75 85/100/75 76/87/75
f 36/178/76 32/35/76 31/34/76
f 123/179/77 73/84/77 75/86/77
f 70/132/78 72/180/78 83/97/78
f 32/176/79 36/148/79 13/147/79
f 7/181/80 63/182/80 64/183/80
f 37/184/81 104/131/81 101/159/81
f 124/185/82 95/117/82 92/186/82
f 125/187/83 30/188/83 107/189/83
f 126/190/84 81/94/84 124/185/84
f 18/20/85 94/191/85 19/21/85
f 111/192/86 11/11/86 10/10/86
f 51/108/87 9/9/87 89/109/87
f 94/136/88 127/193/88 98/134/88
f 15/16/89 3/18/89 2/146/89
f 86/194/90 38/42/90 40/44/90
f 34/37/91 33/36/91 115/195/91
f 46/51/92 45/50/92 128/196/92
f 40/44/93 129/197/93 14/15/93
f 107/189/94 29/198/94 34/199/94
f 130/200/95 123/179/95 75/86/95
f 128/196/96 131/201/96 46/51/96
f 132/202/97 133/203/97 134/204/97
f 79/91/98 10/205/98 80/92/98
f 124/185/99 81/94/99 95/117/99
f 132/202/100 10/205/100 49/206/100
f 121/173/101 4/207/101 117/169/101
f 48/53/102 83/97/102 19/54/102
f 68/90/103 96/208/103 58/65/103
f 114/209/104 107/141/104 135/210/104
f 103/211/105 22/212/105 135/213/105
f 66/77/106 118/214/106 60/67/106
f 11/215/107 111/150/107 112/151/107
f 14/15/108 109/145/108 1/13/108
f 12/216/109 136/217/109 106/218/109
f 137/219/110 28/125/110 100/124/110
f 8/220/111 55/153/111 91/152/111
f 138/221/112 32/35/112 3/18/112
f 24/222/113 82/223/113 25/224/113
f 44/225/114 131/201/114 24/226/114
f 124/227/115 92/114/115 88/107/115
f 41/228/116 139/229/116 21/230/116
f 89/231/117 8/220/117 91/152/117
f 65/232/118 67/233/118 122/174/118
f 94/136/119 18/234/119 127/193/119
f 6/235/120 61/236/120 118/170/120
f 132/202/121 134/204/121 10/205/121
f 67/233/122 106/218/122 122/174/122
f 56/237/123 55/238/123 140/239/123
f 109/240/124 123/179/124 130/200/124
f 106/218/125 136/217/125 120/172/125
f 34/160/126 104/131/126 107/141/126
f 81/94/127 48/53/127 95/117/127
f 137/219/128 112/151/128 78/241/128
f 49/206/129 10/205/129 79/91/129
f 62/73/130 41/75/130 69/242/130
f 41/45/131 43/47/131 139/243/131
f 136/217/132 100/124/132 120/172/132
f 123/179/133 109/240/133 40/244/133
f 141/245/134 107/141/134 114/209/134
f 142/246/135 13/247/135 110/248/135
f 100/124/136 136/217/136 11/215/136
f 101/249/137 115/250/137 35/251/137
f 114/252/138 42/253/138 62/254/138
f 138/255/139 27/256/139 32/257/139
f 8/8/140 89/109/140 9/9/140
f 63/258/141 7/7/141 9/9/141
f 86/194/142 84/123/142 81/259/142
f 17/260/143 133/261/143 127/193/143
f 7/181/144 64/183/144 140/262/144
f 121/173/145 120/172/145 100/124/145
f 132/202/146 98/263/146 133/203/146
f 89/231/147 91/152/147 88/264/147
f 96/118/148 69/80/148 21/265/148
f 50/56/149 9/266/149 51/57/149
f 21/230/150 69/267/150 41/228/150
f 26/268/151 102/269/151 36/163/151
f 143/270/152 54/60/152 30/271/152
f 42/46/153 113/155/153 43/47/153
f 28/272/154 144/273/154 29/274/154
f 73/84/155 123/179/155 12/12/155
f 52/275/156 143/276/156 141/245/156
f 103/130/157 135/210/157 107/141/157
f 92/186/158 95/117/158 94/116/158
f 1/177/159 32/176/159 13/147/159
f 108/143/160 23/142/160 145/277/160
f 92/114/161 90/110/161 88/107/161
f 11/215/162 136/217/162 12/216/162
f 109/145/163 59/66/163 2/146/163
f 146/278/164 44/105/164 87/104/164
f 141/279/165 4/207/165 53/59/165
f 54/60/166 28/125/166 30/271/166
f 115/280/167 33/281/167 144/282/167
f 98/263/168 132/202/168 97/283/168
f 16/17/169 20/30/169 27/29/169
f 122/174/170 117/169/170 119/171/170
f 106/218/171 120/172/171 122/174/171
f 57/64/172 59/66/172 130/284/172
f 142/285/173 99/122/173 85/100/173
f 52/58/174 141/279/174 53/59/174
f 132/202/175 49/206/175 97/283/175
f 108/143/176 145/277/176 126/190/176
f 101/159/177 104/131/177 34/160/177
f 116/168/178 67/78/178 66/77/178
f 137/219/179 100/124/179 112/151/179
f 110/149/180 35/286/180 144/287/180
f 5/288/181 141/279/181 114/289/181
f 35/286/182 110/149/182 36/148/182
f 6/235/183 5/288/183 61/236/183
f 40/244/184 80/290/184 123/179/184
f 116/291/185 73/84/185 105/137/185
f 30/271/186 125/292/186 143/270/186
f 16/17/187 15/16/187 58/65/187
f 70/132/188 78/89/188 71/293/188
f 111/294/189 10/205/189 134/204/189
f 73/84/190 116/291/190 74/85/190
f 86/194/191 40/44/191 84/123/191
f 60/67/192 62/69/192 69/80/192
f 72/83/193 71/82/193 111/150/193
f 14/15/194 142/295/194 85/296/194
f 131/201/195 128/196/195 24/226/195
f 100/124/196 11/215/196 112/151/196
f 21/297/197 16/17/197 96/208/197
f 82/96/198 86/298/198 81/94/198
f 76/87/199 99/122/199 77/88/199
f 70/132/200 76/87/200 78/89/200
f 146/278/201 131/299/201 44/105/201
f 49/300/202 90/110/202 97/119/202
f 45/101/203 86/103/203 82/223/203
f 21/23/204 20/22/204 16/301/204
f 145/277/205 25/95/205 81/94/205
f 116/168/206 66/77/206 68/79/206
f 29/198/207 107/189/207 30/188/207
f 31/302/208 26/303/208 36/304/208
f 67/140/209 116/291/209 105/137/209
f 111/294/210 134/204/210 133/203/210
f 84/98/211 85/100/211 83/97/211
f 99/305/212 142/246/212 110/248/212
f 140/262/213 64/183/213 56/306/213
f 50/307/214 63/70/214 9/308/214
f 147/309/215 126/190/215 124/185/215
f 139/229/216 135/213/216 21/230/216
f 78/241/217 77/310/217 28/125/217
f 54/60/218 143/270/218 52/58/218
f 114/311/219 62/69/219 61/68/219
f 49/206/220 79/91/220 50/307/220
f 108/143/221 126/190/221 147/309/221
f 56/312/222 79/313/222 39/314/222
f 113/315/223 114/209/223 135/210/223
f 122/174/224 121/173/224 117/169/224
f 72/316/225 19/317/225 83/318/225
f 125/319/226 107/141/226 143/276/226
f 23/142/227 25/95/227 145/277/227
f 82/223/228 128/320/228 45/101/228
f 29/321/229 144/282/229 33/281/229
f 26/322/230 22/323/230 103/324/230
f 139/243/231 43/47/231 135/325/231
f 99/305/232 110/248/232 77/326/232
f 60/67/233 118/214/233 61/68/233
f 147/327/234 124/227/234 88/107/234
f 123/179/235 80/290/235 12/12/235
f 54/60/236 53/59/236 121/173/236
f 142/295/237 14/15/237 13/14/237
f 130/284/238 59/66/238 109/145/238
f 75/86/239 57/133/239 130/200/239
f 3/18/240 27/29/240 138/221/240
f 55/153/241 8/220/241 140/328/241
f 115/280/242 144/282/242 35/329/242
f 128/320/243 82/223/243 24/222/243
f 121/173/244 100/124/244 54/60/244
f 92/330/245 94/136/245 93/135/245
f 18/234/246 17/260/246 127/193/246
f 65/232/247 122/174/247 119/171/247
f 16/17/248 58/65/248 96/208/248
f 145/277/249 81/94/249 126/190/249
f 118/170/250 117/169/250 6/235/250
f 50/307/251 79/91/251 148/331/251
f 88/332/252 46/333/252 146/334/252
f 80/290/253 10/10/253 12/12/253
f 148/331/254 63/70/254 50/307/254
f 21/230/255 135/213/255 22/212/255
f 94/335/256 47/336/256 19/337/256
f 110/248/257 28/338/257 77/326/257
f 66/77/258 60/67/258 68/79/258
f 147/327/259 87/104/259 108/339/259
f 46/340/260 131/299/260 146/278/260
f 111/341/261 17/342/261 72/316/261
f 27/29/262 26/28/262 31/34/262
f 121/173/263 53/59/263 4/207/263
f 90/110/264 93/115/264 97/119/264
f 78/241/265 28/125/265 137/219/265
f 65/76/266 118/214/266 66/77/266
f 17/342/267 19/317/267 72/316/267
f 65/76/268 119/343/268 118/214/268
f 43/47/269 113/155/269 135/325/269
f 81/259/270 84/123/270 48/344/270
f 16/17/271 27/29/271 3/18/271
f 109/145/272 14/15/272 129/197/272
f 51/108/273 90/110/273 49/300/273
f 111/341/274 133/345/274 17/342/274
f 144/287/275 28/329/275 110/149/275
f 129/197/276 40/44/276 109/145/276
f 36/163/277 102/269/277 104/161/277
f 91/346/278 39/43/278 38/42/278
f 95/117/279 48/53/279 47/52/279
f 4/4/280 141/347/280 5/5/280
f 71/82/281 78/241/281 112/151/281
f 133/261/282 98/134/282 127/193/282
f 147/327/283 88/107/283 146/278/283
f 143/276/284 107/141/284 141/245/284
f 59/66/285 15/16/285 2/146/285
f 4/207/286 6/235/286 117/169/286
f 147/327/287 146/278/287 87/104/287
f 140/328/288 8/220/288 7/348/288
f 5/288/289 114/289/289 61/236/289
f 39/93/290 80/92/290 40/349/290
f 148/331/291 79/91/291 56/71/291
f 63/70/292 148/331/292 56/71/292
